<?xml version="1.0" encoding="UTF-8" standalone="no"?>
<!DOCTYPE svg PUBLIC "-//W3C//DTD SVG 1.1//EN" "http://www.w3.org/Graphics/SVG/1.1/DTD/svg11.dtd">
<svg width="100%" height="100%" viewBox="0 0 123 76" version="1.1" xmlns="http://www.w3.org/2000/svg" xmlns:xlink="http://www.w3.org/1999/xlink" xml:space="preserve" xmlns:serif="http://www.serif.com/" style="fill-rule:evenodd;clip-rule:evenodd;stroke-linejoin:round;stroke-miterlimit:2;">
    <g>
        <path d="M3.79,75.42L46.59,75.42C46.59,75.42 38.41,38.09 65.5,22.97C71.41,20.1 90.21,9.37 120.98,32.13C121.96,31.32 122.88,30.67 122.88,30.67C122.88,30.67 94.71,2.55 63.34,5.69C47.52,7.1 28.12,21.46 16.74,40.42C5.54,59.08 3.84,74.92 3.79,75.41L3.79,75.42ZM48.22,64.58C48.33,67.45 48.6,69.78 48.87,71.41L55.37,73.74C54.88,71.63 54.39,69.24 54.07,66.7L48.22,64.58ZM8.94,49.3L2.71,47.02C1.68,49.35 0.54,52.06 -0,53.52L6.23,55.8C6.93,53.96 8.07,51.31 8.94,49.3ZM25.3,25.09L21.45,21.73C20.04,23.08 18.69,24.44 17.44,25.79L21.61,29.37C22.76,27.9 24,26.44 25.3,25.09ZM49.03,50.82L53.42,54.29C53.64,52.18 54.02,50.06 54.56,47.95L50.66,44.86C49.95,46.87 49.47,48.87 49.03,50.82ZM56.89,33.37L59.49,37.27C60.41,35.92 61.49,34.67 62.69,33.42L60.25,29.74C59,30.88 57.86,32.13 56.89,33.37ZM45.78,8.99L43.34,5.25C41.99,5.95 40.58,6.71 39.11,7.58L41.6,11.37C43.02,10.51 44.37,9.7 45.78,8.99ZM70.38,23.24L71.63,26.98C73.2,26.22 74.77,25.57 76.34,25.08L75.15,21.5C73.31,22.05 71.73,22.65 70.38,23.24ZM67.78,3.3L68.32,3.3L67.24,0C65.56,0 63.83,0.11 62.04,0.33L63.07,3.53C64.64,3.36 66.21,3.3 67.78,3.3ZM87.83,20.21L87.61,23.62C89.4,23.67 91.19,23.89 92.97,24.27L93.19,20.91C91.35,20.53 89.56,20.32 87.83,20.21ZM92.97,8.72L93.19,5.09C92.7,4.82 91.35,4.17 87.93,3.19L87.71,6.77C89.5,7.37 91.24,8.02 92.97,8.72Z"/>
    </g>
</svg>
