<?xml version="1.0" encoding="UTF-8" standalone="no"?>
<!DOCTYPE svg PUBLIC "-//W3C//DTD SVG 1.1//EN" "http://www.w3.org/Graphics/SVG/1.1/DTD/svg11.dtd">
<svg width="100%" height="100%" viewBox="0 0 32 32" version="1.1" xmlns="http://www.w3.org/2000/svg" xmlns:xlink="http://www.w3.org/1999/xlink" xml:space="preserve" xmlns:serif="http://www.serif.com/" style="fill-rule:evenodd;clip-rule:evenodd;stroke-linejoin:round;stroke-miterlimit:2;">
    <g transform="matrix(1.24648,0,0,1.24648,-4.05089,-4.15951)">
        <path d="M12.557,23.22C12.557,23.22 11.575,23.791 13.256,23.985C15.293,24.217 16.335,24.184 18.58,23.759C18.58,23.759 19.17,24.129 19.995,24.45C14.962,26.607 8.605,24.325 12.558,23.22L12.557,23.22ZM11.942,20.405C11.942,20.405 10.84,21.221 12.523,21.395C14.699,21.619 16.418,21.638 19.392,21.065C19.392,21.065 19.803,21.482 20.45,21.71C14.365,23.489 7.587,21.85 11.942,20.405ZM17.127,15.63C18.367,17.058 16.801,18.343 16.801,18.343C16.801,18.343 19.95,16.718 18.504,14.682C17.153,12.784 16.118,11.841 21.725,8.589C21.725,8.589 12.924,10.787 17.127,15.631L17.127,15.63ZM23.783,25.302C23.783,25.302 24.51,25.901 22.982,26.364C20.077,27.244 10.891,27.51 8.339,26.399C7.422,26 9.142,25.446 9.683,25.33C10.247,25.208 10.57,25.23 10.57,25.23C9.55,24.511 3.976,26.641 7.739,27.251C18.001,28.915 26.445,26.502 23.783,25.301L23.783,25.302ZM13.029,17.489C13.029,17.489 8.356,18.599 11.374,19.002C12.648,19.173 15.188,19.134 17.555,18.936C19.489,18.773 21.431,18.426 21.431,18.426C21.431,18.426 20.749,18.718 20.256,19.055C15.511,20.303 6.345,19.722 8.984,18.446C11.216,17.367 13.03,17.49 13.03,17.49L13.029,17.489ZM21.412,22.174C26.236,19.668 24.005,17.259 22.449,17.583C22.067,17.662 21.897,17.731 21.897,17.731C21.897,17.731 22.039,17.509 22.309,17.413C25.388,16.33 27.757,20.606 21.315,22.3C21.315,22.3 21.39,22.233 21.412,22.174ZM18.503,3.337C18.503,3.337 21.174,6.009 15.969,10.118C11.795,13.414 15.017,15.294 15.967,17.441C13.531,15.243 11.743,13.308 12.942,11.507C14.703,8.863 19.58,7.582 18.502,3.337L18.503,3.337ZM13.503,28.966C18.133,29.262 25.243,28.802 25.411,26.611C25.411,26.611 25.087,27.442 21.585,28.101C17.633,28.845 12.759,28.758 9.869,28.281C9.869,28.281 10.461,28.771 13.504,28.966L13.503,28.966Z" style="fill:rgb(68,68,68);fill-rule:nonzero;"/>
    </g>
</svg>
