<svg xmlns="http://www.w3.org/2000/svg" viewBox="0 0 63 79">
    <path
        d="M19.492,65.928C15.617,62.432 14.485,55.086 16.1,49.764C18.9,53.119 22.779,54.182 26.798,54.782C33.001,55.708 39.094,55.362 44.856,52.564C45.516,52.243 46.125,51.817 46.845,51.386C47.386,52.934 47.527,54.497 47.338,56.088C46.879,59.962 44.925,62.954 41.818,65.223C40.575,66.13 39.26,66.941 37.977,67.797C34.035,70.426 32.968,73.51 34.449,77.995C34.485,78.104 34.516,78.213 34.596,78.48C32.583,77.591 31.112,76.297 29.992,74.595C28.809,72.798 28.246,70.811 28.216,68.662C28.201,67.615 28.201,66.56 28.059,65.528C27.711,63.014 26.514,61.888 24.261,61.823C21.948,61.756 20.118,63.167 19.633,65.389C19.596,65.56 19.542,65.728 19.489,65.926L19.492,65.928Z" />
    <path
        d="M0,51.393C0,51.393 10.598,46.243 21.225,46.243L29.238,21.507C29.538,20.311 30.414,19.498 31.403,19.498C32.392,19.498 33.268,20.311 33.568,21.507L41.58,46.243C54.167,46.243 62.806,51.393 62.806,51.393C62.806,51.393 44.804,2.476 44.769,2.378C44.253,0.931 43.38,0 42.205,0L20.603,0C19.427,0 18.59,0.931 18.038,2.378C18,2.474 0,51.393 0,51.393Z" />
</svg>